<?xml version="1.0" standalone="no"?>
<!DOCTYPE svg PUBLIC "-//W3C//DTD SVG 20010904//EN"
 "http://www.w3.org/TR/2001/REC-SVG-20010904/DTD/svg10.dtd">
<svg version="1.0" xmlns="http://www.w3.org/2000/svg"
 width="1080.000000pt" height="1080.000000pt" viewBox="0 0 1080.000000 1080.000000"
 preserveAspectRatio="xMidYMid meet">

<g transform="translate(0.000000,1080.000000) scale(0.100000,-0.100000)"
fill="#000000" stroke="none">
<path d="M601 10778 c-9 -23 -41 -150 -68 -268 -8 -36 -18 -74 -23 -85 -5 -11
-13 -42 -18 -70 -6 -27 -25 -111 -45 -185 -19 -74 -38 -155 -42 -180 -4 -25
-12 -51 -17 -57 -6 -7 -8 -13 -5 -13 3 0 0 -21 -8 -47 -7 -27 -32 -129 -55
-228 -22 -99 -45 -196 -50 -215 -5 -19 -15 -62 -24 -95 -8 -33 -21 -86 -30
-119 -9 -32 -18 -71 -19 -85 -2 -14 -8 -38 -14 -52 -6 -14 -14 -48 -18 -75 -4
-27 -19 -92 -32 -144 -14 -52 -25 -102 -25 -110 -1 -18 -21 -99 -47 -190 -10
-36 -28 -105 -40 -155 l-21 -90 0 -3760 1 -3760 29 35 c19 21 27 27 23 15 -4
-11 -17 -31 -30 -45 l-23 -25 0 -387 0 -388 268 0 c149 0 274 4 282 10 10 6
14 24 13 52 0 24 4 49 10 56 8 10 7 16 -3 22 -8 5 -11 12 -7 17 5 4 12 1 16
-6 9 -15 31 -7 31 11 0 6 6 19 14 27 8 9 22 29 30 46 9 16 24 30 33 30 11 0
19 9 21 23 3 20 0 22 -22 16 -16 -4 -26 -2 -26 5 0 6 9 11 21 11 20 0 20 0 -2
32 -20 27 -20 31 -5 25 10 -4 20 -7 22 -7 2 0 4 -6 4 -14 0 -8 5 -18 11 -22 7
-4 10 3 9 17 -4 42 -1 46 26 41 15 -3 29 -14 34 -28 5 -13 16 -24 24 -24 7 0
26 -17 42 -37 47 -61 197 -205 299 -284 22 -18 55 -19 641 -19 l618 0 -67 66
c-83 82 -153 185 -197 290 -37 87 -70 203 -70 244 0 14 -4 30 -9 36 -17 18
-22 81 -8 93 12 9 13 2 9 -41 -6 -71 4 -58 12 15 5 47 4 57 -9 57 -20 0 -19
17 3 29 9 6 11 11 5 11 -16 0 -17 36 -3 45 6 4 18 1 27 -6 13 -11 17 -10 29 6
20 26 18 35 -8 35 -23 1 -23 1 -3 16 11 8 28 13 37 11 11 -3 20 2 23 13 3 10
16 21 28 25 19 5 19 7 6 13 -15 6 -16 10 -2 45 8 20 19 37 24 37 5 0 9 7 9 15
0 8 9 15 20 15 28 0 43 35 35 86 -5 35 -3 44 8 44 12 0 15 18 14 97 -1 54 2
116 5 138 4 22 5 34 2 28 -3 -7 -12 -13 -20 -13 -10 0 -11 6 -5 23 5 13 4 33
-4 52 -15 35 -36 111 -39 142 -1 12 -8 29 -15 37 -8 9 -11 28 -8 43 3 15 1 35
-4 45 -5 10 -14 27 -19 38 -7 13 -7 20 0 20 7 0 7 7 0 20 -5 11 -14 29 -20 40
-5 11 -10 28 -10 39 0 29 -11 51 -25 51 -7 0 -15 15 -18 33 -12 71 -31 127
-44 127 -9 0 -13 13 -13 40 0 22 -4 40 -10 40 -13 0 -13 67 0 75 5 3 10 24 10
46 0 22 5 39 11 39 8 0 9 22 4 76 -4 42 -3 79 2 83 4 3 13 20 18 36 7 19 17
30 30 30 14 0 20 9 22 35 6 53 11 62 32 55 11 -3 22 -1 25 4 4 6 13 8 21 4 9
-3 24 5 36 21 23 29 39 34 39 11 0 -11 11 -15 40 -15 25 0 40 -5 41 -12 1 -24
18 27 18 58 1 16 7 39 15 49 12 16 16 17 30 6 14 -12 16 -10 16 15 l1 29 14
-32 c11 -25 20 -33 40 -33 22 0 25 -4 25 -37 0 -27 3 -34 11 -26 13 13 4 67
-14 86 -18 19 -67 96 -67 105 0 5 -13 26 -30 48 -16 21 -30 42 -30 45 0 4 -23
55 -51 113 -45 96 -119 299 -119 329 0 6 -13 54 -30 107 -35 113 -85 355 -95
460 -4 41 -27 144 -51 229 -173 604 -258 1143 -271 1716 -14 603 57 1007 270
1550 30 77 65 181 77 230 32 127 52 178 142 363 44 90 77 167 74 170 -4 3 5
18 20 33 20 21 24 31 16 45 -29 55 9 366 88 714 25 112 56 301 70 425 6 54 17
113 25 129 8 16 15 39 15 50 0 12 9 40 20 64 18 39 22 42 59 42 44 0 71 -20
71 -53 0 -12 -9 -69 -21 -127 -11 -58 -21 -112 -21 -120 0 -8 -4 -26 -9 -40
-5 -14 -15 -61 -24 -105 -8 -44 -19 -105 -25 -135 -5 -30 -17 -87 -26 -126
l-17 -70 26 -27 c30 -29 30 -31 16 -137 -5 -41 -10 -82 -10 -90 -1 -8 -7 -39
-14 -67 -7 -29 -10 -53 -6 -53 4 0 25 18 46 41 72 75 244 212 355 283 25 16
56 37 70 46 14 9 40 24 58 34 17 9 32 24 33 34 0 9 3 12 5 5 3 -7 12 -9 20 -6
7 3 12 9 9 13 -3 5 -1 11 5 15 5 3 10 0 10 -7 0 -9 3 -9 10 2 6 8 8 31 5 50
-3 22 0 46 10 64 21 40 20 94 -2 92 -11 -1 -22 15 -35 53 -10 29 -25 60 -33
68 -17 17 -20 33 -5 33 6 0 10 4 10 9 0 5 -8 8 -17 7 -12 0 -19 7 -21 22 -2
12 -12 28 -23 35 -10 6 -19 20 -19 29 0 10 -4 18 -10 18 -5 0 -10 16 -10 35 0
23 -6 38 -15 41 -12 5 -13 9 -4 20 8 9 9 30 4 62 -4 26 -7 62 -7 81 1 19 -5
39 -13 45 -7 6 -16 22 -19 36 -3 14 -3 19 0 13 13 -28 26 -12 19 23 -4 25 -2
39 6 45 10 6 10 13 0 37 -7 16 -13 67 -13 113 0 47 -4 87 -10 90 -7 4 -6 14 2
29 7 14 10 45 8 76 -3 35 -1 54 6 54 6 0 3 7 -8 15 -14 11 -17 21 -11 47 8 42
8 71 -2 133 -10 61 3 157 23 168 18 10 18 37 0 37 -9 0 -19 -17 -25 -42 l-11
-43 5 43 c5 41 4 42 -24 42 -17 0 -31 -6 -35 -16 -5 -13 -15 -15 -47 -11 -37
5 -41 3 -50 -21 -6 -15 -19 -44 -30 -64 -10 -20 -19 -43 -19 -51 0 -8 -11 -26
-24 -40 -13 -14 -22 -28 -20 -30 2 -2 -13 -12 -33 -22 -21 -10 -45 -22 -54
-26 -9 -4 -19 -6 -22 -3 -5 5 18 133 39 214 8 30 14 58 14 62 0 4 -477 8
-1060 8 l-1060 0 -9 -22z m840 -7961 c-10 -9 -11 -8 -5 6 3 10 9 15 12 12 3
-3 0 -11 -7 -18z m9 -32 c0 -8 -4 -15 -10 -15 -5 0 -10 7 -10 15 0 8 5 15 10
15 6 0 10 -7 10 -15z m760 -25 c0 -5 -5 -10 -11 -10 -5 0 -7 5 -4 10 3 6 8 10
11 10 2 0 4 -4 4 -10z m-785 -30 c3 -5 -1 -10 -10 -10 -9 0 -13 5 -10 10 3 6
8 10 10 10 2 0 7 -4 10 -10z m-37 -118 c-9 -9 -18 -33 -22 -54 -4 -20 -13 -39
-21 -42 -8 -3 -15 -16 -15 -28 0 -27 -26 -68 -42 -68 -7 0 -3 7 8 15 10 8 14
15 8 15 -8 0 -10 13 -7 35 3 21 0 35 -6 35 -6 0 -11 -5 -11 -12 0 -6 -2 -9 -5
-6 -13 13 12 43 35 43 20 0 26 6 28 28 2 15 8 27 13 27 5 0 9 7 9 16 0 8 5 25
12 37 l11 22 10 -23 c8 -16 6 -26 -5 -40z m692 -176 c0 -20 -4 -36 -10 -36 -5
0 -10 15 -10 34 0 19 -3 43 -7 53 -6 17 -6 17 10 1 10 -9 17 -32 17 -52z
m-853 -58 c-3 -8 -6 -5 -6 6 -1 11 2 17 5 13 3 -3 4 -12 1 -19z m53 1 c0 -11
-4 -17 -10 -14 -5 3 -10 13 -10 21 0 8 5 14 10 14 6 0 10 -9 10 -21z m-20 -43
c0 -7 -11 -27 -24 -45 -14 -18 -22 -39 -20 -46 3 -7 -3 -16 -13 -19 -10 -4
-19 -2 -21 3 -2 6 -10 11 -18 11 -8 0 -14 4 -14 9 0 5 -3 16 -6 25 -4 11 2 19
20 26 15 5 31 20 36 32 10 21 10 21 5 -5 -5 -26 -5 -27 15 -10 11 10 20 23 20
31 0 7 5 10 10 7 6 -3 10 -12 10 -19z m-113 -118 c-2 -13 -2 -17 0 -10 5 13
33 17 33 4 0 -16 -43 -98 -67 -126 -25 -30 -48 -75 -45 -88 1 -4 -8 -18 -21
-32 -34 -37 -46 -53 -68 -91 -23 -39 -39 -45 -39 -15 0 11 4 20 8 20 10 0 44
71 41 86 -4 24 3 34 26 34 23 0 31 13 26 42 0 4 8 12 19 18 10 6 17 17 14 24
-3 8 3 22 14 32 11 11 20 30 20 44 0 33 19 80 32 80 6 0 9 -10 7 -22z m-250
-451 c-19 -23 -45 -54 -58 -68 -35 -38 -55 -64 -74 -93 -10 -14 -23 -26 -30
-26 -7 0 -15 -7 -19 -15 -3 -8 -10 -15 -17 -15 -17 0 -8 14 63 92 92 99 98
107 96 116 -1 4 14 24 33 44 47 52 52 21 6 -35z m-257 -277 c0 -5 -10 -18 -22
-30 -12 -11 -19 -20 -15 -20 4 0 -3 -11 -15 -25 -21 -25 -38 -32 -38 -17 0 8
79 102 86 102 2 0 4 -4 4 -10z m-114 -136 c-9 -9 -20 -14 -23 -10 -4 3 2 13
13 20 25 18 31 12 10 -10z m-53 -64 c-9 -16 -23 -30 -30 -30 -8 0 -16 -6 -19
-13 -6 -17 -64 -61 -64 -49 0 11 111 122 122 122 5 0 1 -13 -9 -30z m-162
-163 c-10 -9 -11 -8 -5 6 3 10 9 15 12 12 3 -3 0 -11 -7 -18z m-76 -84 c-14
-15 -25 -33 -25 -39 0 -16 -45 -55 -54 -47 -4 4 -4 0 -1 -9 4 -11 0 -18 -14
-23 -12 -3 -21 -10 -21 -15 0 -5 -14 -16 -32 -25 -25 -12 -17 0 40 57 40 40
72 78 72 85 0 7 7 13 15 13 8 0 15 7 15 15 0 8 7 15 15 15 12 0 9 -7 -10 -27z"/>
<path d="M3602 10773 c2 -16 8 -27 16 -25 6 1 12 -5 12 -13 0 -8 7 -15 15 -15
11 0 15 -11 15 -36 0 -36 15 -74 34 -86 8 -5 7 -13 -1 -28 -18 -28 -16 -39 7
-33 11 3 20 0 20 -6 0 -6 9 -20 20 -31 l20 -20 -28 0 c-15 0 -33 5 -40 12 -7
7 -12 8 -12 2 0 -16 37 -33 59 -27 15 4 21 1 21 -12 0 -13 -6 -16 -24 -11 -26
6 -56 -1 -56 -13 0 -4 11 -14 25 -21 14 -7 25 -22 25 -32 0 -10 7 -21 15 -24
18 -7 20 -31 3 -37 -10 -3 -10 -9 0 -26 7 -13 11 -38 8 -59 -3 -20 -3 -28 1
-17 3 11 9 22 14 26 5 3 3 19 -3 37 -13 33 -3 57 12 32 7 -10 10 -11 10 -2 0
6 7 12 16 12 11 0 14 -5 9 -17 -20 -50 -26 -86 -16 -96 17 -17 13 -88 -6 -109
-15 -17 -15 -18 0 -18 10 0 17 5 17 10 0 6 7 10 15 10 8 0 15 -4 15 -10 0 -5
7 -10 16 -10 14 0 14 -2 3 -16 -7 -9 -15 -12 -17 -6 -5 16 -73 2 -96 -20 -17
-15 -17 -18 -4 -18 9 0 18 5 20 11 5 15 75 1 82 -16 3 -9 0 -12 -10 -8 -7 3
-14 0 -14 -5 0 -6 -9 -14 -20 -17 -30 -10 -25 -41 10 -55 17 -7 30 -19 30 -26
0 -19 -19 -18 -26 1 -4 8 -17 15 -30 15 -19 0 -24 -5 -24 -24 0 -13 -5 -26
-12 -28 -8 -3 -9 -11 -3 -24 8 -18 9 -18 13 4 2 13 8 22 15 19 12 -4 15 -129
3 -164 -5 -14 -3 -23 3 -23 6 0 11 -16 11 -35 0 -27 9 -46 38 -77 20 -22 46
-44 56 -48 17 -6 16 -8 -12 -18 -30 -10 -32 -10 -32 14 0 13 -4 24 -10 24 -5
0 -10 -4 -10 -10 0 -5 -7 -10 -15 -10 -11 0 -15 -12 -15 -50 0 -27 5 -50 10
-50 6 0 10 5 10 10 0 6 7 10 15 10 8 0 15 6 15 13 0 9 10 12 31 9 19 -3 28 -9
25 -17 -10 -26 67 -39 155 -27 45 7 88 17 95 23 11 9 14 8 14 -5 0 -9 -3 -15
-7 -15 -17 3 -36 -1 -31 -6 3 -3 83 6 179 20 475 71 921 29 1269 -117 238
-101 389 -181 488 -260 26 -21 51 -38 57 -38 19 -1 119 -83 266 -220 67 -62
72 -65 116 -74 28 -6 31 -5 26 13 -3 13 2 23 16 30 17 10 21 9 21 -4 0 -8 5
-16 10 -16 20 -3 25 -4 37 -12 7 -5 17 1 24 15 7 13 18 27 26 31 7 5 11 12 8
17 -3 4 2 11 11 14 15 6 15 8 -2 27 -16 18 -26 20 -71 14 -51 -6 -53 -6 -53
18 0 27 33 61 70 72 14 4 34 15 45 25 11 10 57 39 103 65 45 26 82 51 82 56 0
5 9 9 19 9 11 0 23 5 26 10 4 6 21 17 38 25 18 8 47 24 65 35 18 11 38 18 43
15 11 -8 12 -38 1 -51 -5 -5 -17 -31 -27 -59 -15 -44 -55 -132 -130 -290 -13
-27 -31 -68 -39 -89 -18 -43 -33 -45 -16 -2 9 24 8 27 -8 24 -9 -1 -22 0 -27
4 -19 12 -101 -4 -113 -22 -17 -28 11 -60 53 -60 18 0 35 4 37 10 2 5 13 7 24
4 26 -7 22 -44 -5 -45 -10 0 -11 -2 -3 -6 17 -7 15 -23 -3 -23 -8 0 -15 -4
-15 -10 0 -5 5 -10 11 -10 12 0 -14 -48 -36 -66 -9 -7 -10 -15 -4 -25 5 -8 9
-24 9 -36 0 -12 12 -35 26 -50 15 -15 37 -45 50 -65 13 -20 33 -46 46 -57 12
-12 18 -21 13 -21 -5 0 1 -10 12 -22 45 -49 203 -330 203 -360 0 -6 14 -40 30
-75 35 -73 60 -162 60 -210 0 -18 4 -33 9 -33 14 0 34 -70 33 -111 -1 -21 5
-50 13 -66 8 -15 15 -34 15 -41 0 -7 4 -20 9 -30 16 -31 33 -93 27 -99 -3 -3
0 -15 6 -27 7 -11 13 -25 13 -31 1 -5 4 -17 7 -25 10 -23 22 -93 20 -112 -1
-9 5 -22 13 -28 8 -7 15 -27 15 -44 0 -18 7 -57 15 -88 17 -68 20 -90 60 -598
4 -41 9 -131 11 -200 3 -69 8 -132 11 -140 16 -41 17 -371 1 -381 -6 -4 -11
-55 -13 -128 -2 -101 -5 -124 -19 -134 -10 -7 -16 -18 -14 -24 6 -22 -17 -15
-36 11 -16 21 -21 46 -24 124 -2 53 -5 122 -7 152 -4 58 -11 287 -21 690 -7
293 -11 393 -19 440 -3 19 -7 91 -10 160 -5 149 -30 314 -54 359 -6 10 -7 21
-4 25 3 3 1 6 -5 6 -7 0 -12 10 -12 22 0 12 -7 30 -17 40 -12 13 -13 18 -3 18
10 0 9 4 -3 18 -8 9 -19 35 -23 56 -4 22 -16 49 -28 61 -12 11 -21 25 -22 30
-2 20 -29 75 -36 75 -4 0 -8 7 -8 16 0 9 -8 23 -17 31 -14 11 -15 16 -5 20 9
3 6 11 -11 27 -13 12 -26 29 -30 39 -3 9 -11 17 -18 17 -6 0 -9 7 -5 15 3 8 1
15 -3 15 -5 0 -14 14 -20 30 -5 17 -8 30 -5 30 3 0 -4 10 -15 22 -11 11 -18
24 -16 28 3 5 -2 11 -11 14 -8 3 -13 10 -10 15 3 4 -3 16 -14 26 -11 10 -20
26 -20 37 0 10 -6 18 -12 18 -15 0 -58 43 -58 58 0 5 -7 12 -15 16 -8 3 -15
11 -15 19 0 7 -13 21 -29 30 -17 10 -33 26 -36 37 -4 11 -11 20 -16 20 -6 0
-28 18 -50 40 -22 22 -43 40 -47 40 -4 0 -21 14 -39 30 -18 17 -36 30 -41 30
-5 0 -17 9 -27 20 -10 11 -22 20 -28 20 -5 0 -21 9 -35 19 -34 24 -314 167
-412 210 -109 48 -265 98 -367 116 -48 9 -173 20 -278 25 -104 5 -224 12 -265
15 -64 5 -73 4 -58 -7 9 -8 46 -15 86 -16 83 -3 174 -25 217 -52 25 -16 27
-20 10 -20 -16 0 -20 -7 -20 -32 0 -28 -4 -33 -27 -36 -37 -4 -44 -30 -10 -38
135 -30 137 -32 147 -177 4 -62 9 -155 11 -207 3 -52 9 -99 14 -105 5 -6 9
-25 8 -41 -3 -39 20 -241 39 -339 8 -43 19 -113 24 -155 14 -98 23 -161 44
-295 9 -60 17 -121 18 -135 1 -14 7 -31 14 -37 6 -7 14 -32 18 -55 4 -24 15
-70 26 -103 10 -33 21 -76 23 -95 8 -56 23 -120 46 -193 12 -37 23 -91 25
-120 3 -29 14 -99 24 -157 11 -58 20 -142 20 -187 1 -45 5 -84 11 -88 5 -3
-12 -26 -38 -50 -34 -33 -55 -45 -77 -45 -16 0 -51 -7 -76 -14 -26 -8 -72 -17
-103 -20 -31 -4 -65 -10 -74 -15 -9 -4 -39 -18 -67 -31 -91 -44 -147 -106
-123 -137 11 -14 -20 -62 -39 -63 -16 0 -14 10 -18 -135 -4 -174 -3 -173 -16
-155 -8 11 -9 9 -3 -10 4 -14 11 -28 17 -32 7 -4 6 -12 -2 -22 -11 -14 -11
-16 4 -16 13 0 15 -3 7 -13 -9 -10 -56 -12 -216 -10 -145 3 -217 0 -248 -8
-41 -13 -38 -13 92 -20 74 -4 179 -14 233 -22 108 -17 130 -30 134 -82 1 -16
8 -51 14 -77 11 -43 10 -50 -6 -68 -12 -13 -15 -24 -9 -30 14 -14 76 11 70 27
-3 7 0 13 7 13 8 0 6 4 -3 10 -10 6 -11 10 -2 10 6 0 12 8 12 18 0 44 22 93
45 102 16 6 23 15 19 25 -4 10 13 34 50 70 30 30 58 55 61 55 3 0 11 4 18 10
48 39 78 60 120 84 26 16 47 30 47 33 0 5 -75 -36 -142 -76 l-37 -23 15 31 c9
17 19 31 23 31 4 0 16 18 26 41 28 60 125 141 210 172 99 37 208 40 244 6 26
-25 24 -40 -10 -50 -96 -28 -196 -62 -203 -70 -5 -5 5 -4 22 1 18 6 47 15 64
20 61 19 53 9 -19 -25 -40 -19 -73 -39 -73 -44 0 -14 1 -14 57 8 66 26 237 64
259 58 11 -3 6 -5 -13 -6 -33 -1 -33 -2 -33 -50 l0 -49 -46 -11 c-25 -7 -85
-19 -131 -27 -47 -8 -97 -22 -112 -32 -14 -10 -38 -24 -52 -31 -14 -7 -41 -25
-59 -41 -29 -24 -30 -29 -14 -32 17 -4 16 -6 -6 -17 -22 -11 -90 -89 -90 -104
0 -7 42 6 95 28 117 51 214 60 320 28 9 -2 44 -11 135 -32 30 -7 31 -9 10 -11
l-25 -2 25 -11 c66 -31 84 -69 55 -114 -8 -12 -15 -29 -15 -37 0 -17 -51 -34
-130 -43 -50 -6 -54 -5 -41 10 12 15 10 17 -22 17 -20 0 -39 5 -43 11 -4 8
-26 9 -63 5 -38 -4 -51 -3 -41 4 26 17 -15 12 -58 -6 l-37 -17 35 -7 c19 -4
80 -19 135 -33 182 -45 322 -77 338 -77 9 0 21 -9 27 -20 11 -21 -4 -42 -55
-76 -26 -17 -26 -18 -20 -103 4 -50 2 -113 -5 -151 -14 -80 -14 -92 -5 -158 6
-42 5 -56 -8 -70 -9 -10 -22 -53 -28 -95 -6 -43 -16 -77 -23 -77 -13 0 24 -35
73 -69 41 -30 117 -31 231 -5 164 37 312 120 456 257 122 115 213 247 296 432
99 221 114 369 47 480 -69 114 -65 142 10 73 53 -48 91 -117 91 -166 0 -30 2
-32 38 -33 21 -1 29 -3 17 -6 -32 -8 -43 -21 -38 -47 3 -14 -2 -37 -10 -53 -8
-15 -20 -55 -26 -88 -12 -64 -48 -160 -101 -265 -163 -326 -361 -513 -630
-593 -124 -38 -188 -47 -350 -54 -127 -5 -156 -3 -234 16 -101 24 -205 73
-283 133 -59 45 -133 126 -133 145 0 7 -9 22 -20 33 -11 11 -20 27 -20 35 0 8
-4 15 -9 15 -5 0 -7 8 -4 19 3 10 -2 21 -10 24 -23 9 -63 96 -88 194 -18 70
-23 116 -23 225 -1 76 -3 138 -6 137 -14 -2 -43 -18 -34 -18 8 -1 10 -14 7
-36 -3 -21 0 -35 6 -35 22 0 10 -19 -20 -34 -40 -20 -56 -11 -32 17 18 22 18
22 -3 4 -11 -9 -29 -17 -38 -17 -15 0 -17 -5 -12 -28 3 -15 9 -51 12 -79 4
-29 10 -53 13 -53 4 0 15 -18 25 -40 10 -22 23 -40 31 -40 7 0 20 -17 29 -37
9 -21 28 -59 41 -84 14 -26 25 -58 25 -70 0 -13 7 -37 15 -53 17 -32 19 -62 6
-70 -4 -3 -6 -17 -3 -31 3 -18 0 -25 -12 -25 -30 0 -16 -17 14 -18 20 0 30 4
30 14 0 21 27 17 33 -6 4 -15 0 -20 -14 -20 -10 0 -19 -4 -19 -10 0 -5 10 -10
21 -10 19 0 21 -4 16 -30 -6 -27 -4 -30 18 -30 14 0 25 -4 25 -10 0 -5 6 -10
14 -10 14 0 32 -37 23 -46 -3 -3 5 -15 17 -28 11 -12 41 -45 66 -72 25 -28 54
-54 65 -59 11 -5 106 -10 210 -11 105 -1 197 -4 205 -6 52 -15 58 -20 64 -53
4 -19 4 -74 0 -122 -3 -48 -7 -126 -9 -173 -3 -101 -13 -150 -31 -157 -8 -3
-14 -11 -14 -17 0 -19 -43 -36 -63 -24 -12 6 -17 5 -17 -3 0 -10 -26 -10 -65
1 -5 1 -23 2 -38 1 -23 -1 -28 -5 -25 -23 2 -11 -3 -23 -9 -25 -7 -3 -13 2
-13 11 0 9 -6 13 -14 10 -12 -5 -12 -9 0 -32 9 -19 10 -30 2 -39 -6 -7 -7 -13
-2 -13 4 0 -2 -9 -14 -21 -13 -11 -32 -19 -45 -17 -18 2 -22 9 -22 36 0 17 -3
32 -7 32 -5 0 -8 7 -8 15 0 9 -12 33 -26 55 -14 21 -27 50 -28 64 0 13 -3 22
-5 20 -5 -5 -40 88 -52 141 -9 38 -21 76 -39 120 -5 11 -16 45 -25 75 -16 52
-46 127 -64 160 -5 9 -12 31 -16 50 -7 31 -9 32 -21 16 -7 -10 -10 -24 -8 -31
3 -7 1 -16 -4 -19 -6 -3 -8 -15 -5 -27 4 -12 0 -25 -8 -30 -11 -7 -11 -11 -1
-17 13 -9 6 -42 -9 -42 -6 0 -23 -14 -39 -30 -16 -17 -34 -30 -41 -30 -6 0
-18 -9 -27 -19 -18 -21 -106 -34 -107 -16 -1 6 -5 28 -10 50 -4 22 -8 43 -7
48 3 10 -45 9 -66 -2 -9 -5 -40 -21 -68 -35 -28 -13 -67 -35 -85 -48 -19 -13
-55 -31 -79 -42 -25 -10 -58 -25 -74 -33 -43 -23 -142 -17 -243 15 -18 6 -41
8 -53 5 -11 -3 -20 0 -20 6 0 6 -4 11 -9 11 -16 0 -96 85 -93 99 2 7 -1 10 -6
7 -6 -3 -12 1 -16 9 -3 8 -11 13 -18 10 -7 -3 -31 -7 -53 -10 -22 -2 -62 -9
-90 -15 -27 -6 -78 -16 -112 -22 -45 -8 -63 -16 -63 -27 0 -8 24 -38 54 -67
48 -47 60 -53 132 -69 146 -32 214 -56 230 -79 8 -13 39 -40 69 -61 30 -20 55
-41 55 -46 0 -4 9 -11 21 -14 22 -7 128 -87 187 -142 21 -19 31 -36 27 -43 -8
-14 -96 -55 -108 -52 -5 1 -23 -4 -40 -12 -42 -18 -114 -43 -151 -51 -25 -5
-28 -4 -18 8 14 16 6 28 -14 20 -18 -7 -18 2 1 20 13 13 10 14 -27 9 -29 -3
-39 -2 -34 6 4 8 0 12 -12 12 -11 0 -24 6 -30 13 -10 12 -57 14 -247 7 -36 -1
-38 -2 -16 -11 13 -5 32 -7 41 -4 10 3 35 0 56 -8 23 -7 53 -10 71 -6 18 3 30
2 27 -2 -3 -5 3 -9 12 -9 10 0 14 -3 11 -7 -4 -3 -26 -6 -49 -5 -33 2 -39 -1
-30 -10 7 -7 29 -12 49 -13 21 -1 51 -9 66 -19 16 -11 46 -19 70 -19 27 0 35
-2 23 -7 -18 -6 -18 -7 5 -14 l24 -7 -28 -15 c-18 -10 -39 -13 -58 -9 l-31 7
23 -26 c12 -14 30 -26 38 -26 14 -1 14 -1 0 -10 -54 -31 -370 14 -386 56 -3 8
-13 14 -23 14 -11 0 -22 5 -25 10 -3 6 -26 10 -51 10 -24 0 -44 4 -44 9 0 6
-8 10 -17 9 -10 0 -38 5 -63 11 -53 12 -114 23 -85 15 11 -4 27 -12 35 -19 21
-18 117 -65 133 -65 7 0 30 -9 52 -20 22 -11 46 -20 55 -20 8 0 40 -9 70 -20
30 -11 66 -20 79 -20 25 0 126 -44 135 -59 3 -4 34 -14 68 -21 35 -7 75 -19
90 -27 32 -15 149 -17 246 -4 174 25 195 22 171 -18 -8 -11 -20 -21 -27 -21
-7 0 -15 -7 -18 -15 -5 -11 -22 -15 -65 -15 -46 0 -59 -3 -59 -15 0 -18 -21
-20 -38 -3 -8 8 -15 8 -26 -1 -12 -10 -15 -8 -19 11 -4 23 -4 23 -6 1 -2 -43
-72 -59 -129 -29 -31 16 -34 16 -59 -4 -14 -11 -32 -20 -40 -20 -7 0 -32 -12
-54 -26 -33 -21 -49 -24 -87 -20 -49 5 -109 23 -128 37 -6 5 -16 3 -23 -4 -9
-9 -14 -9 -21 3 -7 10 -10 11 -10 3 0 -7 -4 -13 -10 -13 -5 0 -10 9 -10 20 0
15 -7 20 -25 20 -28 0 -32 -12 -10 -34 8 -8 15 -19 15 -25 0 -6 4 -11 10 -11
5 0 7 -7 4 -15 -4 -8 -1 -15 5 -15 6 0 11 -4 11 -10 0 -5 -10 -10 -22 -10 -13
0 -30 -5 -38 -10 -13 -8 -11 -11 8 -16 12 -4 22 -10 22 -15 0 -4 18 -13 40
-19 21 -6 42 -15 45 -20 4 -6 22 -17 41 -25 35 -15 46 -35 18 -35 -17 0 -54
-36 -54 -52 0 -4 -12 -8 -27 -8 -16 0 -34 -4 -42 -9 -18 -11 -6 -45 13 -38 8
3 17 0 19 -7 3 -7 26 -16 51 -19 25 -4 56 -13 69 -21 12 -8 45 -16 72 -19 56
-6 152 -23 175 -31 18 -6 206 -24 351 -32 84 -5 116 -2 160 11 30 9 74 19 99
22 25 3 49 9 55 14 5 5 19 9 30 9 12 0 32 11 45 25 12 13 63 47 111 76 95 55
145 103 180 170 20 41 55 78 73 79 4 0 31 20 58 45 28 25 56 45 63 45 19 0 64
57 71 88 3 15 10 38 16 52 6 14 12 62 13 108 2 59 8 89 19 101 9 10 16 23 16
29 0 6 14 25 30 42 26 27 37 31 78 29 26 -1 69 5 95 14 49 16 73 13 129 -15
16 -7 28 -19 28 -26 0 -7 7 -15 15 -18 19 -8 19 -61 -1 -139 -8 -33 -16 -67
-17 -75 -1 -8 -10 -22 -19 -32 -10 -10 -18 -25 -18 -34 0 -8 -11 -32 -25 -52
-14 -20 -25 -40 -25 -45 0 -9 -81 -110 -92 -115 -5 -2 -8 -8 -8 -13 0 -17 -23
-41 -141 -155 -51 -49 -68 -59 -84 -53 -45 17 -82 10 -117 -24 -93 -93 -208
-221 -208 -233 0 -7 -8 -15 -17 -18 -10 -4 -33 -20 -52 -36 -35 -31 -86 -40
-94 -17 -2 7 -12 -2 -23 -21 -11 -17 -27 -35 -36 -38 -10 -3 -18 -12 -18 -21
0 -10 -6 -13 -16 -9 -8 3 -34 -3 -57 -14 -22 -11 -55 -20 -73 -20 -33 0 -140
-69 -206 -131 -15 -15 -62 -39 -105 -54 -43 -15 -82 -31 -88 -35 -5 -4 -39
-11 -75 -15 -35 -4 -82 -17 -105 -29 -36 -19 -53 -21 -177 -18 -99 2 -138 -1
-138 -9 0 -8 -14 -10 -42 -6 -32 5 -37 4 -20 -3 12 -5 22 -12 22 -16 0 -8 -80
6 -102 18 -14 7 -18 5 -18 -11 0 -16 5 -18 29 -15 22 4 29 1 27 -12 -1 -12 14
-21 49 -31 128 -37 377 -75 439 -67 25 4 46 2 49 -4 4 -6 -22 -12 -66 -17 -39
-3 -78 -11 -84 -17 -30 -25 0 -168 36 -168 9 0 31 -14 49 -30 24 -23 32 -38
32 -65 0 -34 1 -35 40 -35 29 0 40 -4 40 -15 0 -11 -12 -15 -42 -15 -36 -1
-40 -2 -24 -11 17 -11 17 -13 -10 -36 -23 -19 -14 -17 46 14 41 20 77 41 78
45 2 5 9 8 16 8 7 0 31 13 54 30 22 16 42 24 44 19 4 -12 78 28 78 42 0 4 17
-1 37 -13 26 -16 38 -18 41 -10 2 7 17 12 34 12 40 0 148 28 175 46 29 18 33
18 33 -3 1 -16 2 -16 13 -3 16 19 53 40 71 40 8 0 26 14 40 31 14 17 31 27 37
24 5 -4 19 1 29 10 16 15 22 15 35 5 13 -11 15 -9 15 14 0 14 3 26 8 26 4 0
25 16 47 35 54 48 175 135 187 135 6 0 8 7 5 14 -4 10 -1 13 9 9 7 -3 14 -1
14 5 0 9 59 70 170 175 22 21 40 43 40 48 0 5 6 9 13 9 6 0 33 20 59 45 27 24
78 67 114 95 36 28 73 58 81 66 25 25 38 11 36 -38 -2 -33 2 -50 14 -59 11
-10 14 -10 9 -2 -4 7 -1 20 6 28 22 26 135 115 146 115 6 0 12 5 14 11 2 5 10
11 18 13 8 1 32 8 52 15 21 7 48 10 60 6 16 -4 19 -4 9 3 -21 15 11 20 99 17
106 -3 117 -9 124 -58 10 -64 10 -73 3 -212 -17 -349 -19 -409 -11 -402 5 5
14 34 20 65 7 31 19 82 27 112 8 30 23 91 32 135 29 138 60 196 121 221 19 8
34 21 34 29 0 8 7 16 15 16 17 2 23 3 45 11 8 3 33 10 55 15 22 5 39 14 37 21
-3 19 45 14 54 -5 4 -10 6 -22 5 -27 -1 -5 5 -6 14 -3 11 5 15 0 15 -18 0 -13
5 -27 10 -30 6 -3 10 -17 10 -31 0 -13 4 -24 8 -24 5 0 14 -46 21 -102 7 -57
17 -130 23 -163 15 -96 21 -612 9 -830 -12 -216 -43 -571 -60 -675 -6 -36 -11
-77 -11 -92 l0 -28 98 0 99 0 7 118 c6 116 1 766 -8 871 -2 30 -7 91 -10 135
-4 45 -13 126 -21 181 -28 193 -47 371 -51 478 -4 94 -3 111 14 135 10 15 22
35 25 45 4 9 13 17 22 17 8 0 15 3 15 8 0 4 26 8 58 8 31 0 67 6 79 12 16 9
22 9 26 -1 3 -9 7 -9 19 1 10 8 19 9 22 3 3 -5 0 -12 -6 -15 -7 -4 3 -4 23 -2
27 3 40 -1 52 -15 9 -10 24 -19 32 -19 8 0 15 -7 15 -15 0 -12 4 -13 19 -5 28
15 61 12 67 -5 4 -8 15 -15 25 -15 15 0 19 7 19 36 0 33 2 36 24 30 14 -3 28
-2 31 4 3 5 -1 10 -9 10 -9 0 -16 7 -16 16 0 12 3 14 13 6 24 -20 130 -25 171
-8 21 9 48 13 61 10 20 -5 22 -2 18 19 -3 17 -14 28 -30 32 -25 6 -25 7 -18
82 5 52 3 78 -4 83 -7 3 -9 14 -5 24 7 17 41 16 109 -5 38 -11 135 -109 135
-136 0 -27 6 -31 35 -25 17 3 25 11 25 24 0 16 6 19 35 16 19 -2 33 1 32 7 -1
6 -9 9 -18 8 -10 -1 -15 5 -15 20 1 13 -4 21 -11 19 -7 -1 -13 2 -13 8 0 5 -5
10 -11 10 -7 0 -5 -10 6 -26 20 -30 13 -43 -12 -23 -16 12 -17 12 -6 -1 9 -12
8 -19 -2 -33 -8 -12 -15 -14 -20 -8 -3 6 -1 11 4 11 6 0 11 5 11 11 0 5 -5 7
-12 3 -8 -5 -9 -2 -5 9 3 9 2 19 -3 22 -5 3 -8 19 -8 35 1 27 4 30 33 30 26 0
31 4 31 23 -1 35 36 34 73 -2 18 -17 29 -31 25 -31 -3 0 -1 -7 6 -15 6 -8 9
-19 5 -25 -3 -5 0 -11 7 -11 7 -1 20 -3 28 -4 65 -7 65 -40 0 -40 -35 0 -50
-4 -50 -13 0 -7 4 -11 8 -8 8 5 63 -6 93 -18 25 -11 49 61 32 94 -7 14 -18 25
-25 26 -21 0 -125 53 -138 69 -7 8 -26 15 -42 15 -16 0 -27 4 -23 9 3 5 1 12
-4 15 -5 3 -12 22 -15 41 -7 36 -26 48 -27 18 0 -13 -3 -11 -10 7 -6 14 -9 42
-7 64 3 31 0 41 -19 53 -26 17 -30 41 -8 49 11 5 9 11 -10 29 -29 26 -32 47
-10 65 8 7 15 16 15 21 0 5 -7 9 -15 9 -8 0 -15 7 -15 15 0 8 9 15 20 15 19 0
19 1 3 20 -17 19 -18 19 -25 3 -5 -10 -6 0 -3 25 5 38 3 42 -16 42 -18 0 -19
2 -9 15 7 8 18 14 24 13 12 -3 16 3 16 22 0 6 -20 10 -45 10 -32 0 -45 4 -45
14 0 9 7 12 19 9 24 -6 61 29 61 58 0 15 -5 19 -18 15 -15 -5 -17 0 -14 39 2
26 0 45 -6 45 -5 0 -12 20 -13 44 -3 26 0 44 6 43 5 -1 10 7 10 18 0 14 -6 19
-17 17 -11 -2 -18 3 -18 12 0 20 17 29 24 14 2 -7 3 -2 1 12 -2 14 -4 26 -6
28 -1 1 -2 7 -3 12 0 6 -8 15 -16 20 -10 7 -11 10 -2 10 6 0 12 5 12 11 0 6
-7 9 -15 5 -19 -7 -19 -1 1 18 14 14 13 18 -5 38 -22 23 -28 58 -11 58 6 0 10
7 10 15 0 8 6 25 13 36 10 17 9 23 -1 26 -7 3 -17 13 -23 24 -9 18 -7 19 15
13 25 -6 26 -5 24 42 l-1 49 -4 -42 c-4 -44 -8 -49 -31 -35 -19 13 4 67 34 81
32 14 86 15 64 1 -13 -8 -12 -10 3 -10 9 0 17 4 17 9 0 16 40 24 55 11 9 -8
15 -8 20 0 3 6 11 8 16 4 5 -3 7 -10 4 -15 -4 -5 0 -9 9 -9 8 0 17 6 20 13 3
6 3 2 0 -10 -6 -26 10 -30 32 -8 13 12 11 17 -16 36 -16 13 -30 29 -30 36 0 7
-6 10 -14 7 -9 -4 -18 9 -27 41 -11 37 -17 45 -32 41 -11 -3 -20 2 -24 12 -18
57 -34 81 -51 76 -14 -5 -15 -4 -2 5 13 9 13 12 -1 23 -24 20 -54 71 -50 87 1
8 -1 17 -6 20 -9 6 -44 77 -56 114 -4 9 -14 17 -22 17 -12 0 -15 6 -10 20 4
14 -3 29 -24 52 -23 25 -29 38 -24 57 4 16 2 22 -5 17 -6 -3 -13 3 -17 14 -3
11 -14 27 -23 37 -12 12 -13 18 -4 21 20 6 14 22 -9 22 -17 0 -19 3 -10 14 8
10 9 16 1 21 -5 3 -10 15 -10 27 0 11 -8 22 -19 25 -16 4 -19 12 -15 49 3 27
1 44 -5 44 -6 0 -11 15 -11 33 -1 39 -25 110 -40 115 -16 6 -12 39 7 46 18 7
33 -9 33 -37 0 -10 4 -16 9 -12 5 3 12 -4 16 -15 3 -11 10 -20 15 -20 4 0 10
-9 13 -21 3 -12 12 -19 23 -17 13 2 35 -24 81 -92 34 -52 85 -128 113 -168 27
-40 50 -77 50 -82 0 -6 4 -10 8 -10 4 0 23 -26 42 -57 54 -90 121 -183 131
-183 5 0 8 -3 7 -7 -3 -10 102 -141 160 -201 23 -24 42 -47 42 -51 0 -4 13
-20 29 -35 25 -24 134 -224 132 -241 -1 -3 9 -26 23 -53 13 -26 27 -63 31 -82
4 -19 15 -46 25 -60 10 -14 29 -47 43 -75 13 -27 34 -58 45 -68 11 -10 26 -33
33 -50 15 -37 78 -133 126 -193 18 -23 33 -45 33 -50 0 -5 9 -15 20 -22 11 -7
20 -18 20 -26 0 -7 9 -21 21 -32 11 -10 43 -50 72 -89 28 -38 57 -73 64 -78
13 -8 179 -211 251 -305 23 -31 42 -53 42 -49 0 3 28 -24 62 -61 35 -37 90
-94 123 -127 79 -80 110 -118 107 -130 -2 -5 0 -7 4 -2 8 8 60 -40 368 -348
111 -110 234 -226 274 -258 l72 -58 0 2365 0 2365 -97 -1 c-107 -1 -129 -9
-183 -62 -10 -10 -40 -22 -66 -27 -26 -5 -60 -16 -77 -24 -48 -24 -65 -20 -38
9 28 29 119 76 149 76 12 0 30 9 41 21 10 11 34 25 53 29 53 14 130 43 176 68
l42 22 0 1713 0 1712 -24 -30 c-13 -16 -36 -43 -50 -60 -14 -16 -26 -35 -26
-40 0 -6 -9 -17 -20 -25 -11 -8 -20 -20 -20 -27 0 -7 -4 -13 -8 -13 -10 0 -62
-77 -62 -91 0 -5 -7 -9 -15 -9 -8 0 -15 -5 -15 -11 0 -5 -13 -24 -30 -42 -16
-18 -30 -37 -30 -44 0 -6 -4 -13 -8 -15 -11 -4 -57 -67 -153 -208 -105 -155
-249 -317 -269 -305 -6 4 -9 13 -6 21 3 9 -2 14 -14 14 -13 0 -18 -5 -14 -15
4 -8 -1 -17 -10 -21 -9 -3 -13 -10 -10 -15 5 -9 -43 -56 -59 -57 -5 0 -15 -9
-23 -19 -12 -17 -13 -16 -14 12 0 34 29 65 60 65 11 0 20 5 20 10 0 6 -4 10
-10 10 -18 0 -10 19 11 25 16 5 18 9 9 15 -10 6 -8 15 9 39 12 17 27 31 32 31
5 0 9 6 9 14 0 7 8 16 19 19 20 5 54 64 45 79 -3 5 4 12 15 15 12 3 20 11 18
17 -2 6 7 19 20 29 13 10 23 26 23 36 0 10 18 32 40 50 22 17 40 38 40 46 0
28 24 65 42 65 21 0 23 11 6 28 -9 9 -6 12 15 12 20 0 27 5 27 19 0 10 7 24
15 31 8 7 12 16 9 21 -3 5 2 6 11 3 11 -5 18 0 22 15 3 11 11 21 18 21 8 0 11
8 8 20 -3 12 0 20 6 20 7 0 10 4 7 9 -4 5 7 22 24 38 16 15 30 36 30 45 0 16
11 23 33 19 4 0 7 4 7 10 0 7 16 34 35 60 19 27 35 53 35 59 0 5 7 7 16 3 14
-5 16 -1 12 20 -3 16 0 28 8 31 8 3 14 12 14 20 0 9 6 13 14 10 11 -4 13 0 9
15 -4 15 -1 21 10 21 9 0 19 9 22 20 4 11 20 35 36 52 l29 32 0 528 0 528
-3601 0 -3600 0 3 -27z m122 -118 c3 -8 1 -15 -3 -15 -5 0 -17 -3 -26 -6 -15
-6 -15 -4 -4 15 16 25 25 27 33 6z m11 -34 c7 -12 -12 -24 -25 -16 -11 7 -4
25 10 25 5 0 11 -4 15 -9z m2735 -761 c13 -8 13 -11 -1 -25 -15 -15 -21 -15
-59 -2 -26 9 -37 16 -28 20 8 3 21 1 29 -4 8 -5 21 -8 29 -8 10 0 11 2 3 6 -7
2 -13 9 -13 14 0 12 21 11 40 -1z m-2603 -16 c-3 -3 -12 -4 -19 -1 -8 3 -5 6
6 6 11 1 17 -2 13 -5z m2686 -22 c10 -11 14 -26 10 -40 -6 -25 -18 -29 -26 -8
-3 8 -19 17 -36 21 -34 7 -34 7 -25 29 8 22 57 20 77 -2z m71 -88 c3 -8 2 -12
-4 -9 -6 3 -10 10 -10 16 0 14 7 11 14 -7z m-2674 -296 c0 -13 -23 -5 -28 10
-2 7 2 10 12 6 9 -3 16 -11 16 -16z m257 -4 c-3 -3 -12 -4 -19 -1 -8 3 -5 6 6
6 11 1 17 -2 13 -5z m5714 -961 c0 -11 3 -13 6 -5 12 30 23 0 14 -36 -1 -2 -8
4 -17 13 -20 19 -38 15 -42 -11 -6 -30 -22 -41 -22 -16 0 47 59 100 61 55z
m-71 -80 c-1 -18 -18 -35 -24 -24 -4 6 -4 16 -1 21 7 12 25 13 25 3z m-22 -93
c-7 -10 -21 -21 -31 -24 -13 -3 -18 -10 -14 -20 4 -11 1 -16 -11 -16 -12 0
-13 -3 -5 -8 9 -6 0 -22 -32 -56 -25 -26 -45 -54 -45 -62 0 -7 -7 -14 -15 -14
-8 0 -15 -4 -15 -10 0 -5 -7 -10 -15 -10 -8 0 -15 -6 -15 -14 0 -7 -9 -16 -20
-19 -11 -3 -20 -14 -20 -25 0 -10 -9 -27 -20 -37 -17 -15 -23 -16 -33 -6 -9
11 -9 14 1 18 6 3 12 14 12 24 0 11 5 30 11 42 17 31 71 91 83 93 27 3 30 5
17 13 -8 5 -11 16 -8 26 4 9 11 13 17 10 5 -3 10 -1 10 5 0 7 9 23 20 37 17
21 21 23 26 9 11 -28 26 -17 24 17 -1 17 -2 35 -1 38 1 4 21 7 46 7 41 1 44 0
33 -18z m-311 -362 c-3 -10 -1 -18 3 -18 14 0 -1 -38 -26 -66 -14 -14 -32 -38
-42 -52 -29 -45 -55 -72 -70 -72 -7 0 -12 -6 -9 -12 2 -7 -9 -32 -24 -55 -16
-23 -29 -46 -29 -51 0 -5 -9 -17 -20 -27 -11 -10 -20 -24 -20 -30 0 -7 -6 -18
-14 -24 -8 -7 -22 -29 -31 -49 -10 -20 -31 -55 -46 -77 -51 -70 -398 -538
-442 -595 -23 -30 -48 -66 -56 -80 -8 -14 -30 -44 -50 -67 -64 -74 -107 -127
-144 -181 -35 -50 -64 -86 -97 -122 -8 -9 -24 -33 -34 -53 -11 -20 -22 -37
-26 -37 -4 0 -20 -19 -37 -42 -17 -24 -41 -54 -53 -68 l-22 -25 7 25 c4 14 18
37 31 51 13 14 22 28 18 31 -3 4 3 9 13 12 10 3 24 19 31 35 7 17 50 82 95
145 45 63 104 150 131 192 27 42 55 78 63 81 7 3 13 11 13 19 0 8 5 14 10 14
6 0 10 7 10 15 0 8 5 15 10 15 6 0 10 7 10 17 0 16 47 85 62 91 4 2 8 9 8 15
0 7 24 44 53 83 66 87 72 100 46 107 -23 6 -24 17 -4 42 9 11 28 39 43 62 50
76 116 168 127 178 7 6 21 26 33 45 22 38 57 64 72 55 5 -3 14 3 20 14 5 11
23 27 38 36 15 10 34 30 41 46 7 16 20 29 29 29 14 0 14 2 3 9 -11 7 -11 10 1
17 8 5 30 32 48 59 40 60 93 115 110 115 8 0 11 9 7 28 -4 21 2 35 29 65 19
21 40 35 46 31 7 -4 8 -3 4 4 -4 7 -1 12 8 12 9 0 16 7 16 15 0 8 -7 15 -16
15 -8 0 -12 5 -9 10 10 17 37 -11 32 -32z m713 -2148 c0 -5 -9 -19 -21 -31
-15 -15 -19 -28 -14 -50 6 -27 5 -29 -25 -29 -34 0 -48 -11 -67 -50 -7 -14
-27 -52 -46 -85 -18 -33 -43 -84 -55 -113 -13 -29 -49 -107 -81 -175 -75 -156
-107 -238 -127 -323 -8 -37 -22 -80 -30 -95 -13 -26 -16 -28 -42 -17 -46 20
-63 46 -77 121 -8 39 -21 99 -29 131 -18 72 -12 112 26 151 16 16 26 35 24 42
-3 7 1 13 8 13 22 0 93 73 88 90 -4 12 -3 13 10 2 14 -11 19 -8 38 22 12 20
19 40 16 45 -8 12 9 22 48 31 20 4 31 12 31 23 0 9 3 16 6 14 15 -6 40 28 35
48 -8 32 4 37 25 12 l18 -22 1 26 c0 14 6 34 14 44 8 11 12 25 9 32 -9 23 17
14 27 -9 l9 -23 7 23 c3 12 11 22 16 22 6 0 7 7 4 16 -4 11 1 18 14 21 11 3
20 9 20 14 0 5 11 9 25 9 14 0 28 7 31 15 3 8 14 17 25 20 10 4 19 15 19 26 0
10 5 19 10 19 6 0 10 -4 10 -10z m75 -99 c9 -16 -34 -33 -66 -26 -47 11 -37
35 15 35 25 0 47 -4 51 -9z m-505 -255 c0 -3 -4 -8 -10 -11 -5 -3 -10 -1 -10
4 0 6 5 11 10 11 6 0 10 -2 10 -4z m-2730 -158 c0 -6 -6 -5 -15 2 -8 7 -15 14
-15 16 0 2 7 1 15 -2 8 -4 15 -11 15 -16z m-974 -1 c8 -8 -11 -42 -26 -47 -8
-2 -73 -6 -145 -7 -125 -3 -129 -3 -101 13 58 32 149 54 209 50 32 -2 61 -6
63 -9z m1344 -256 c0 -9 -60 -24 -68 -17 -2 3 -1 9 3 15 7 13 65 15 65 2z m15
-41 c-27 -12 -35 -12 -35 0 0 6 12 10 28 9 24 0 25 -1 7 -9z m125 -66 c0 -38
-14 -51 -36 -33 -13 10 -17 10 -26 -2 -7 -10 -8 -3 -4 25 6 43 18 56 47 49 14
-4 19 -14 19 -39z m-1485 -74 c4 -6 -6 -10 -22 -9 -25 0 -26 1 -8 9 11 5 21 9
22 9 1 1 5 -3 8 -9z m-762 -163 c-5 -25 -7 -26 -18 -10 -11 14 -10 19 4 29 20
15 20 15 14 -19z m7 -57 c0 -12 -8 -12 -35 0 -18 8 -17 9 8 9 15 1 27 -3 27
-9z m1937 -132 c-3 -8 -6 -5 -6 6 -1 11 2 17 5 13 3 -3 4 -12 1 -19z m13 -97
c0 -3 -4 -12 -9 -20 -7 -11 -11 -10 -20 6 -5 11 -8 23 -5 26 7 7 34 -3 34 -12z
m-24 -68 c4 -27 7 -61 6 -78 -2 -23 0 -26 7 -15 15 22 24 5 10 -18 -13 -21 -5
-57 11 -47 6 4 10 -6 10 -24 0 -21 5 -31 15 -31 13 0 15 -11 12 -54 -3 -40 0
-56 9 -60 17 -6 19 -76 3 -76 -8 0 -8 -5 1 -15 9 -10 9 -15 1 -15 -8 0 -8 -5
1 -19 31 -50 -88 -80 -159 -40 -60 34 -113 79 -113 97 0 10 20 80 45 157 25
77 45 148 45 157 0 9 5 20 10 23 6 3 10 15 10 26 0 11 7 22 15 25 8 4 15 14
15 23 0 21 9 31 26 31 6 0 15 -21 20 -47z m-1796 -163 c0 -5 -7 -10 -16 -10
-8 0 -12 5 -9 10 3 6 10 10 16 10 5 0 9 -4 9 -10z m2904 -389 c3 -5 -1 -11 -9
-15 -15 -6 -29 7 -18 18 9 9 21 8 27 -3z m36 -48 c0 -5 -4 -14 -9 -22 -7 -11
-11 -9 -20 8 -10 18 -9 21 9 21 11 0 20 -3 20 -7z m-86 -29 c3 -8 2 -12 -4 -9
-6 3 -10 10 -10 16 0 14 7 11 14 -7z m144 -15 c-26 -17 -40 -11 -28 12 9 16
14 18 26 8 12 -10 12 -14 2 -20z m-53 -29 c3 -5 1 -10 -4 -10 -6 0 -11 5 -11
10 0 6 2 10 4 10 3 0 8 -4 11 -10z m68 -2 c-6 -11 -31 -10 -37 1 -3 5 5 8 18
7 13 0 22 -4 19 -8z m-2493 -458 c0 -5 -7 -10 -15 -10 -8 0 -15 5 -15 10 0 6
7 10 15 10 8 0 15 -4 15 -10z m2327 -162 c-3 -8 -6 -5 -6 6 -1 11 2 17 5 13 3
-3 4 -12 1 -19z m-3579 -105 c-10 -2 -18 -9 -18 -14 0 -5 -8 -9 -17 -9 -16 1
-16 2 1 15 11 8 27 14 35 14 13 -1 12 -2 -1 -6z m622 -135 c-1 -39 -70 -70
-138 -62 -36 4 -43 3 -32 -5 11 -9 4 -10 -33 -8 -52 5 -69 13 -43 23 9 3 14 9
11 14 -4 7 167 46 213 49 12 0 22 -5 22 -11z m-283 -44 c-3 -3 -12 -4 -19 -1
-8 3 -5 6 6 6 11 1 17 -2 13 -5z m-757 -413 c0 -5 -11 -11 -25 -13 -26 -5 -35
6 -12 15 20 9 37 8 37 -2z m4188 -46 c-1 -36 -11 -45 -24 -23 -4 6 -2 14 4 16
7 2 12 12 12 23 0 10 2 19 5 19 2 0 4 -16 3 -35z m152 -59 c0 -11 -19 -15 -25
-6 -3 5 1 10 9 10 9 0 16 -2 16 -4z"/>
<path d="M6524 9806 c23 -18 36 -20 36 -6 0 6 -4 10 -9 10 -5 0 -18 3 -28 6
-16 5 -16 4 1 -10z"/>
<path d="M3540 10760 c0 -5 9 -10 20 -10 11 0 20 5 20 10 0 6 -9 10 -20 10
-11 0 -20 -4 -20 -10z"/>
<path d="M3048 10643 c6 -2 18 -2 25 0 6 3 1 5 -13 5 -14 0 -19 -2 -12 -5z"/>
<path d="M3680 10285 c0 -28 12 -32 29 -11 10 12 8 17 -8 26 -19 9 -21 8 -21
-15z"/>
<path d="M3761 10151 c-1 -34 2 -42 11 -33 8 8 8 20 1 44 l-11 33 -1 -44z"/>
<path d="M3738 10073 c7 -3 16 -2 19 1 4 3 -2 6 -13 5 -11 0 -14 -3 -6 -6z"/>
<path d="M3698 9593 c12 -2 32 -2 45 0 12 2 2 4 -23 4 -25 0 -35 -2 -22 -4z"/>
<path d="M3760 9555 c0 -8 5 -15 10 -15 6 0 10 7 10 15 0 8 -4 15 -10 15 -5 0
-10 -7 -10 -15z"/>
<path d="M3725 9510 c3 -5 13 -10 21 -10 8 0 14 5 14 10 0 6 -9 10 -21 10 -11
0 -17 -4 -14 -10z"/>
<path d="M4030 9400 c0 -5 7 -10 15 -10 8 0 15 5 15 10 0 6 -7 10 -15 10 -8 0
-15 -4 -15 -10z"/>
<path d="M3978 9383 c7 -3 16 -2 19 1 4 3 -2 6 -13 5 -11 0 -14 -3 -6 -6z"/>
<path d="M3271 9184 c0 -11 3 -14 6 -6 3 7 2 16 -1 19 -3 4 -6 -2 -5 -13z"/>
<path d="M6848 8998 c-29 -8 -38 -16 -43 -39 -4 -16 -4 -33 0 -39 9 -15 56
-11 90 9 33 19 47 61 21 61 -9 0 -16 5 -16 10 0 11 -2 11 -52 -2z"/>
<path d="M4879 8666 c-3 -3 -42 -7 -87 -10 -113 -7 -253 -33 -340 -62 -40 -13
-78 -24 -85 -24 -16 0 -198 -71 -252 -98 -22 -11 -69 -32 -105 -48 -36 -15
-72 -33 -80 -39 -8 -7 -37 -23 -65 -35 -61 -29 -253 -149 -400 -250 -128 -89
-370 -343 -485 -510 -21 -30 -47 -64 -59 -74 -11 -11 -21 -25 -21 -33 0 -7 -4
-13 -9 -13 -5 0 -18 -15 -30 -32 -11 -18 -55 -82 -97 -143 -81 -116 -157 -256
-198 -365 -32 -87 -109 -266 -156 -365 -167 -350 -190 -409 -214 -529 -20 -98
-20 -119 0 -196 9 -34 14 -71 11 -81 -4 -15 0 -19 20 -19 22 0 24 -2 13 -15
-10 -12 -10 -15 0 -15 9 0 7 -7 -6 -22 -10 -12 -13 -18 -6 -14 8 5 18 2 25 -8
9 -12 22 -14 50 -10 28 5 35 10 27 19 -8 10 -3 19 17 34 28 22 28 22 3 15 -14
-4 -26 -11 -28 -15 -7 -17 -34 -9 -30 8 3 18 68 59 68 43 0 -6 4 -10 8 -10 5
0 14 26 21 58 7 31 16 69 21 85 5 16 5 27 -1 27 -5 0 -9 -5 -9 -11 0 -5 -4 -8
-9 -5 -11 7 -7 242 7 336 6 41 15 102 20 135 5 33 14 73 21 88 6 16 11 39 11
51 0 25 44 170 60 198 6 10 10 27 10 37 0 11 5 23 10 26 6 3 10 17 10 30 0 13
4 26 9 29 4 3 18 32 31 65 12 32 36 75 54 95 18 19 31 38 28 41 -3 3 0 5 6 5
7 0 12 5 12 11 0 5 -4 7 -10 4 -15 -9 -12 11 3 27 20 20 67 106 67 123 0 8 5
15 10 15 6 0 15 10 20 23 5 12 18 33 29 47 10 14 47 68 81 120 35 52 69 99 77
103 7 4 13 13 13 18 0 10 53 82 76 104 5 5 35 42 66 80 31 39 66 80 77 91 11
12 17 25 14 28 -4 3 -1 6 5 6 7 0 20 8 30 18 85 82 241 218 286 248 68 47 129
85 159 100 18 9 34 20 37 23 17 22 284 163 405 214 173 72 567 187 644 187 17
0 31 5 31 10 0 6 41 10 103 11 56 0 111 4 122 9 13 6 -6 9 -61 9 -44 1 -83 -1
-85 -3z"/>
<path d="M6642 8600 c0 -14 2 -19 5 -12 2 6 2 18 0 25 -3 6 -5 1 -5 -13z"/>
<path d="M3550 8000 c-13 -8 -12 -10 3 -10 9 0 17 5 17 10 0 12 -1 12 -20 0z"/>
<path d="M3480 7950 c0 -5 4 -10 9 -10 6 0 13 5 16 10 3 6 -1 10 -9 10 -9 0
-16 -4 -16 -10z"/>
<path d="M3430 7899 c0 -5 5 -7 10 -4 6 3 10 8 10 11 0 2 -4 4 -10 4 -5 0 -10
-5 -10 -11z"/>
<path d="M3400 7874 c0 -8 5 -12 10 -9 6 3 10 10 10 16 0 5 -4 9 -10 9 -5 0
-10 -7 -10 -16z"/>
<path d="M3347 7824 c-16 -13 -27 -28 -25 -33 2 -5 19 6 38 25 39 39 29 46
-13 8z"/>
<path d="M3645 6245 l-30 -13 32 -1 c17 -1 34 3 38 8 10 17 -9 19 -40 6z"/>
<path d="M3760 6230 c-14 -5 -47 -13 -75 -18 -105 -22 -107 -22 -101 -38 4 -9
-3 -18 -19 -24 -28 -11 -33 -28 -9 -37 8 -3 13 -12 9 -20 -4 -12 0 -14 20 -9
14 4 44 -1 72 -12 42 -16 53 -17 81 -5 26 11 41 11 73 2 31 -10 44 -10 63 1
13 7 28 10 34 6 5 -3 23 -1 41 4 23 6 35 5 45 -5 7 -8 16 -12 19 -9 3 3 14 -3
26 -15 11 -11 16 -21 11 -23 -20 -7 -14 -43 8 -53 13 -5 25 -20 29 -32 5 -21
33 -34 33 -15 0 4 11 8 25 8 20 2 25 -3 25 -20 0 -21 -45 -75 -57 -68 -2 2 -8
0 -11 -4 -4 -4 13 -4 37 -1 28 3 40 2 31 -3 -13 -8 -12 -13 3 -39 9 -16 17
-31 17 -34 0 -4 -69 -19 -100 -22 -18 -1 -44 5 -170 38 -204 54 -414 82 -571
75 -62 -3 -115 -10 -122 -17 -8 -8 21 -11 114 -11 136 -1 237 -11 338 -36 93
-22 230 -63 271 -81 83 -35 130 -58 130 -65 0 -10 -355 0 -420 12 -130 24
-421 13 -510 -19 -14 -5 -36 -12 -50 -15 -14 -3 -34 -14 -45 -24 -11 -10 -29
-22 -40 -26 -13 -5 -15 -10 -7 -13 14 -6 16 -33 2 -33 -5 0 -10 -6 -10 -14 0
-18 41 -27 115 -27 50 0 55 -2 43 -16 -12 -15 -8 -16 39 -10 43 5 51 3 46 -9
-3 -7 -10 -14 -16 -14 -6 0 -8 -3 -4 -6 3 -3 21 2 41 11 39 18 84 13 56 -6
-11 -8 -7 -8 15 -3 40 10 117 6 125 -7 4 -5 15 -7 25 -3 12 5 16 4 12 -3 -4
-7 8 -9 35 -7 28 3 47 -1 59 -12 14 -12 24 -13 54 -5 33 9 37 8 46 -15 6 -18
14 -24 27 -19 11 3 30 -3 46 -16 20 -16 36 -20 62 -16 19 3 34 2 34 -4 0 -5 7
-9 16 -9 8 0 31 -12 49 -26 19 -14 39 -23 45 -19 6 3 10 -3 10 -15 0 -12 5
-18 10 -15 6 3 10 -3 10 -13 0 -11 -8 -23 -17 -28 -10 -4 -106 -9 -214 -11
-108 -1 -208 -7 -223 -13 -15 -5 -33 -10 -41 -10 -57 0 -60 -40 -5 -64 22 -10
40 -22 40 -27 0 -5 14 -9 30 -9 17 0 38 -4 48 -9 62 -31 167 -38 277 -16 39 7
99 18 135 25 85 15 140 31 147 43 7 11 -87 98 -97 92 -16 -10 -51 44 -48 71 3
27 6 29 41 28 22 -1 55 -6 75 -12 21 -6 56 -16 79 -23 23 -6 49 -9 58 -5 16 6
16 8 1 31 -9 13 -16 27 -16 30 0 3 27 3 60 -1 66 -7 115 12 104 41 -4 8 -1 15
5 15 26 0 66 -38 102 -93 l37 -59 -5 48 c-3 30 -17 69 -36 99 -16 28 -30 55
-29 60 0 6 3 36 7 67 5 50 3 58 -15 68 -30 16 -24 28 17 36 24 4 48 20 69 42
30 33 31 37 16 49 -16 12 -16 14 3 28 11 9 31 19 44 22 21 5 23 10 18 44 -5
41 -34 80 -45 62 -4 -6 -22 -12 -40 -15 -29 -4 -35 -1 -43 20 -9 25 1 41 24
42 5 0 7 6 4 13 -2 6 -12 11 -22 9 -32 -6 -65 8 -65 27 0 11 -9 21 -21 24 -14
4 -20 11 -16 20 4 11 -10 21 -50 36 -30 12 -59 18 -64 15 -5 -3 -22 8 -39 24
-16 16 -45 33 -66 36 -40 8 -73 24 -89 44 -12 15 -75 18 -134 7 -32 -6 -42 -5
-37 3 5 8 -2 12 -19 12 -20 0 -26 4 -22 14 4 10 1 13 -9 9 -7 -3 -14 0 -14 6
0 17 -76 13 -94 -4 -8 -8 -18 -15 -22 -15 -5 0 -3 5 4 12 13 13 17 49 5 47 -5
-1 -19 -5 -33 -9z m-117 -47 c-7 -2 -21 -2 -30 0 -10 3 -4 5 12 5 17 0 24 -2
18 -5z m105 0 c-10 -2 -28 -2 -40 0 -13 2 -5 4 17 4 22 1 32 -1 23 -4z m-108
-38 c0 -8 -7 -15 -15 -15 -16 0 -20 12 -8 23 11 12 23 8 23 -8z m410 -15 c0
-11 -4 -20 -9 -20 -5 0 -11 -7 -13 -16 -3 -13 -6 -13 -27 5 -21 19 -21 26 2
22 4 0 7 6 7 14 0 8 9 15 20 15 13 0 20 -7 20 -20z m407 -206 c-3 -3 -12 -4
-19 -1 -8 3 -5 6 6 6 11 1 17 -2 13 -5z m183 -153 c0 -5 -9 -11 -20 -14 -13
-3 -20 0 -20 9 0 8 9 14 20 14 11 0 20 -4 20 -9z m-465 -32 c12 -18 -3 -22
-20 -5 -14 14 -14 16 -1 16 8 0 18 -5 21 -11z m-500 -124 c46 -15 72 -25 85
-30 3 -2 15 -6 28 -10 29 -10 28 -23 -4 -31 -31 -8 -269 1 -384 15 -47 6 -111
11 -142 12 -34 1 -55 6 -52 11 11 17 76 40 134 49 86 12 278 3 335 -16z"/>
<path d="M3978 6183 c7 -3 16 -2 19 1 4 3 -2 6 -13 5 -11 0 -14 -3 -6 -6z"/>
<path d="M2410 5945 c0 -8 2 -15 4 -15 2 0 6 7 10 15 3 8 1 15 -4 15 -6 0 -10
-7 -10 -15z"/>
<path d="M4067 5933 c-11 -10 -8 -43 3 -43 6 0 10 11 10 25 0 26 -2 29 -13 18z"/>
<path d="M3035 5832 c-80 -8 -257 -58 -324 -91 -79 -38 -157 -101 -180 -145
-8 -14 -21 -26 -30 -26 -14 0 -14 -2 -1 -10 13 -9 11 -13 -10 -30 -22 -18 -35
-20 -108 -15 -46 2 -87 7 -92 10 -6 4 -10 -3 -10 -13 0 -11 -11 -27 -25 -36
-14 -9 -25 -24 -25 -34 0 -10 3 -13 8 -6 4 6 36 11 72 11 67 1 87 -8 103 -50
4 -10 11 -16 16 -13 11 7 21 -28 21 -79 0 -22 4 -46 9 -54 10 -15 16 16 27
139 9 102 11 111 34 142 11 15 20 30 20 34 0 21 146 124 233 165 85 39 232 77
333 85 47 4 86 10 88 13 4 6 -106 8 -159 3z"/>
<path d="M4650 5680 c-12 -7 -10 -9 8 -7 12 0 22 5 22 9 0 11 -12 10 -30 -2z"/>
<path d="M2192 5650 c0 -14 2 -19 5 -12 2 6 2 18 0 25 -3 6 -5 1 -5 -13z"/>
<path d="M2320 5630 c-13 -8 -13 -10 2 -10 9 0 20 5 23 10 8 13 -5 13 -25 0z"/>
<path d="M2567 5414 c-12 -13 -7 -84 7 -107 22 -35 78 -206 71 -217 -3 -5 1
-20 9 -32 9 -12 16 -30 16 -39 0 -10 12 -28 28 -41 26 -22 60 -84 54 -100 -1
-5 7 -8 18 -8 10 0 23 -8 29 -17 9 -17 10 -17 16 -1 7 18 -15 48 -35 48 -21 0
-32 54 -25 130 5 69 3 81 -22 136 -15 34 -36 65 -47 70 -12 5 -30 34 -44 69
-42 107 -56 127 -75 109z"/>
<path d="M3390 5340 c0 -5 5 -10 10 -10 6 0 10 5 10 10 0 6 -4 10 -10 10 -5 0
-10 -4 -10 -10z"/>
<path d="M5615 5288 c-38 -23 -73 -46 -77 -52 -5 -7 -8 -7 -8 -1 0 6 -21 -12
-45 -39 -33 -36 -43 -52 -35 -60 8 -8 21 1 47 32 19 23 76 69 126 102 103 68
98 81 -8 18z"/>
<path d="M4586 5158 c-3 -13 -6 -39 -6 -60 0 -29 -13 -109 -33 -203 -2 -5 -5
-15 -9 -20 -3 -6 -16 -39 -28 -74 -62 -185 -209 -391 -363 -509 -123 -95 -312
-173 -470 -194 -222 -30 -535 49 -760 191 -37 24 -70 41 -73 38 -9 -9 37 -85
55 -91 9 -3 43 -21 76 -40 104 -61 175 -87 414 -152 182 -49 191 -75 69 -195
-46 -44 -96 -87 -113 -96 -16 -9 -50 -34 -75 -56 -25 -22 -66 -50 -93 -62 -45
-21 -85 -57 -116 -103 -8 -12 -24 -22 -35 -24 -29 -4 -67 -83 -62 -128 7 -58
18 -100 27 -100 5 0 9 -6 9 -13 0 -8 11 -24 24 -36 23 -21 25 -22 54 -7 17 9
37 16 45 16 8 0 36 17 62 39 25 21 56 43 68 48 128 56 138 66 260 253 85 130
141 207 166 226 15 12 189 44 235 44 20 0 30 9 46 40 11 21 20 46 20 54 0 55
106 170 208 224 43 23 90 66 188 174 175 190 183 201 241 290 38 58 49 84 46
105 -2 15 -5 42 -7 58 -7 66 -30 83 -60 43 -16 -22 -17 -17 -11 87 4 61 8 121
9 135 2 14 4 37 4 52 1 15 9 33 17 41 15 15 10 27 -11 27 -6 0 -14 -10 -18
-22z m-20 -385 c-10 -10 -19 5 -10 18 6 11 8 11 12 0 2 -7 1 -15 -2 -18z m-6
-30 c0 -14 -46 -138 -63 -170 -22 -41 -75 -92 -104 -99 -23 -6 -32 -24 -13
-24 6 0 10 -3 10 -7 -1 -13 -93 -108 -102 -105 -4 1 -7 -1 -6 -5 5 -15 -112
-124 -124 -117 -7 5 -9 2 -5 -9 4 -12 2 -14 -10 -10 -12 5 -15 2 -10 -10 3 -9
3 -17 -1 -18 -4 0 -21 -2 -37 -3 -17 -1 -36 -6 -43 -10 -6 -4 -20 -2 -29 4
-16 9 -15 10 5 5 13 -4 21 -2 20 3 -2 6 35 39 82 74 83 63 230 204 230 221 0
5 15 27 34 50 39 49 116 183 116 202 0 8 8 19 18 24 21 12 32 14 32 4z"/>
<path d="M5417 5108 c-19 -7 -26 -15 -23 -25 3 -8 0 -26 -8 -41 -7 -15 -17
-46 -21 -69 -9 -54 -25 -75 -61 -77 -38 -2 -54 -13 -54 -37 0 -24 -14 -24 -54
0 -40 25 -134 56 -217 72 -56 10 -74 10 -125 -4 -49 -13 -52 -15 -16 -11 24 3
42 2 42 -4 0 -5 21 -12 48 -15 121 -15 183 -39 242 -93 23 -21 29 -22 63 -12
33 10 37 15 37 44 0 38 2 40 55 49 30 5 36 4 25 -4 -12 -9 -11 -11 7 -11 12 0
24 -6 27 -12 4 -7 4 -3 2 9 -2 13 -1 25 4 28 4 3 11 35 15 71 4 38 17 85 30
110 25 47 25 48 -18 32z"/>
<path d="M4459 4931 c-14 -9 -26 -20 -27 -25 0 -5 -13 -17 -29 -27 -15 -10
-23 -19 -16 -19 6 0 15 5 18 10 3 6 15 10 26 10 10 0 19 6 19 14 0 7 10 20 23
29 30 21 18 28 -14 8z"/>
<path d="M5613 4933 c-25 -5 -32 -23 -9 -23 22 0 46 11 46 21 0 5 -3 8 -7 8
-5 -1 -18 -4 -30 -6z"/>
<path d="M5730 4908 c-19 -5 -39 -14 -45 -20 -7 -7 -2 -8 15 -3 44 13 70 24
70 30 0 3 -1 5 -2 4 -2 0 -19 -5 -38 -11z"/>
<path d="M4370 4750 c-19 -15 -21 -20 -9 -20 16 0 46 27 38 35 -2 2 -15 -5
-29 -15z"/>
<path d="M5254 4755 c-10 -8 -14 -15 -8 -15 6 0 17 7 24 15 16 19 9 19 -16 0z"/>
<path d="M5447 4623 c-17 -16 5 -163 24 -163 18 0 47 -42 42 -61 -3 -10 0 -19
6 -19 6 0 11 12 11 26 0 14 12 50 26 80 25 53 25 56 8 75 -9 10 -23 19 -29 19
-7 0 -19 9 -26 19 -15 21 -51 35 -62 24z"/>
<path d="M3277 4324 c-8 -8 47 -54 66 -54 8 0 18 7 21 16 4 10 14 14 26 11 25
-6 48 18 24 27 -20 8 -129 8 -137 0z m83 -20 c0 -8 -4 -12 -10 -9 -5 3 -10 10
-10 16 0 5 5 9 10 9 6 0 10 -7 10 -16z"/>
<path d="M3905 4300 c-8 -13 5 -13 25 0 13 8 13 10 -2 10 -9 0 -20 -4 -23 -10z"/>
<path d="M5514 4294 c3 -9 6 -18 6 -20 0 -2 7 -4 15 -4 8 0 15 -9 15 -19 0
-11 5 -23 10 -26 6 -4 10 5 10 19 0 14 -4 26 -9 26 -5 0 -13 9 -16 20 -3 11
-13 20 -22 20 -10 0 -13 -6 -9 -16z"/>
<path d="M3830 4265 c-8 -9 -8 -15 -2 -15 12 0 26 19 19 26 -2 2 -10 -2 -17
-11z"/>
<path d="M8373 3443 c-15 -6 -17 -33 -3 -33 6 0 10 6 10 14 0 8 6 17 13 19 6
3 8 5 2 5 -5 0 -16 -2 -22 -5z"/>
<path d="M8331 3378 c-10 -28 -9 -30 13 -22 18 7 21 29 6 39 -6 3 -14 -4 -19
-17z"/>
<path d="M3398 3263 c-28 -3 -38 -9 -38 -22 0 -10 -15 -24 -35 -34 -19 -9 -35
-22 -35 -27 0 -6 -4 -9 -9 -6 -21 13 -27 -67 -8 -107 9 -21 17 -26 32 -22 11
3 52 8 90 11 52 4 79 12 107 31 34 23 45 25 147 24 84 -1 111 2 111 11 -1 16
-66 47 -114 55 -20 3 -36 10 -36 16 0 6 -3 8 -6 5 -6 -7 -29 4 -91 45 -24 15
-51 26 -60 25 -10 -1 -35 -3 -55 -5z"/>
<path d="M4035 3080 c11 -5 27 -9 35 -9 9 0 8 4 -5 9 -11 5 -27 9 -35 9 -9 0
-8 -4 5 -9z"/>
<path d="M4113 3063 c9 -2 23 -2 30 0 6 3 -1 5 -18 5 -16 0 -22 -2 -12 -5z"/>
<path d="M4182 3026 c-33 -19 -36 -24 -8 -19 14 3 31 11 37 19 14 17 2 17 -29
0z"/>
<path d="M4455 2950 c4 -6 11 -8 16 -5 14 9 11 15 -7 15 -8 0 -12 -5 -9 -10z"/>
<path d="M4363 2902 c-6 -4 7 -8 30 -8 30 -1 36 1 22 7 -26 10 -37 10 -52 1z"/>
<path d="M2465 2810 c3 -5 -1 -10 -11 -10 -14 0 -15 -7 -10 -40 4 -25 2 -40
-4 -40 -5 0 -10 -7 -10 -15 0 -12 5 -12 23 -4 18 8 22 19 25 65 1 33 -2 54 -8
54 -6 0 -8 -4 -5 -10z"/>
<path d="M4740 2650 c0 -5 7 -10 15 -10 8 0 15 5 15 10 0 6 -7 10 -15 10 -8 0
-15 -4 -15 -10z"/>
<path d="M4065 2611 c-3 -5 -1 -12 5 -16 5 -3 10 1 10 9 0 18 -6 21 -15 7z"/>
<path d="M8420 2610 c0 -5 7 -10 15 -10 8 0 15 5 15 10 0 6 -7 10 -15 10 -8 0
-15 -4 -15 -10z"/>
<path d="M8450 2530 c0 -5 7 -10 15 -10 8 0 15 5 15 10 0 6 -7 10 -15 10 -8 0
-15 -4 -15 -10z"/>
<path d="M4030 2516 c0 -9 7 -16 16 -16 17 0 14 22 -4 28 -7 2 -12 -3 -12 -12z"/>
<path d="M8595 2300 c3 -5 8 -10 11 -10 2 0 4 5 4 10 0 6 -5 10 -11 10 -5 0
-7 -4 -4 -10z"/>
<path d="M9434 2285 c-4 -8 0 -35 8 -60 11 -31 12 -47 4 -55 -7 -7 -6 -10 2
-10 17 0 15 -45 -3 -60 -17 -14 -75 -115 -75 -132 0 -6 -6 -19 -13 -27 -8 -9
-23 -47 -35 -86 -12 -38 -40 -122 -62 -185 -23 -63 -47 -136 -55 -163 -8 -26
-21 -71 -30 -100 -9 -28 -21 -74 -29 -102 -7 -27 -20 -64 -28 -80 -9 -17 -19
-49 -23 -70 -4 -22 -13 -50 -21 -62 -8 -12 -14 -31 -14 -41 0 -10 -3 -22 -6
-25 -14 -14 -134 -372 -134 -399 0 -10 -4 -18 -10 -18 -5 0 -10 -9 -10 -20 0
-11 -7 -37 -16 -58 -9 -20 -18 -53 -20 -72 -6 -45 -25 -111 -37 -127 -6 -9 -6
-13 1 -13 7 0 7 -10 0 -32 -5 -18 -14 -53 -19 -78 -5 -25 -15 -67 -23 -95 -8
-27 -17 -65 -20 -82 l-5 -33 1019 0 1020 0 0 558 c0 322 -4 551 -9 543 -7 -11
-16 -7 -40 20 -17 18 -31 30 -31 26 0 -5 -7 -1 -16 7 -8 9 -13 20 -10 25 3 5
-3 7 -14 4 -11 -3 -20 0 -20 6 0 6 -7 11 -15 11 -8 0 -15 5 -15 10 0 6 -6 10
-13 10 -7 0 -29 17 -49 38 -41 41 -52 51 -91 76 -15 10 -73 66 -129 123 -150
153 -212 213 -221 213 -5 0 -5 5 -1 12 4 6 3 8 -3 5 -6 -4 -29 3 -53 14 -23
11 -59 23 -79 26 -20 4 -47 13 -61 22 -14 9 -21 11 -17 4 6 -9 3 -11 -7 -7 -9
3 -14 10 -11 14 3 4 -1 7 -8 6 -18 -1 -87 27 -87 36 0 4 6 8 14 8 17 0 15 28
-4 40 -7 4 -19 6 -27 3 -11 -4 -10 -8 4 -19 17 -12 16 -13 -4 -7 -13 3 -23 9
-23 14 0 5 -8 9 -17 9 -16 1 -16 2 2 12 19 12 18 13 -10 19 l-30 6 32 13 c18
6 31 16 28 21 -3 4 -17 4 -31 -1 -32 -13 -43 -12 -24 0 13 8 13 11 1 19 -21
13 -2 33 25 27 24 -6 24 -6 6 22 -30 50 -70 92 -87 92 -8 0 -18 7 -21 15 -9
22 -23 18 -34 -7 -6 -16 -7 -8 -3 26 5 36 3 47 -6 42 -6 -4 -9 -11 -7 -15 3
-4 0 -13 -5 -21 -7 -11 -9 -8 -7 13 2 21 -6 37 -34 65 -20 20 -51 52 -68 70
-24 26 -31 30 -36 17z m240 -261 c4 -10 12 -14 22 -10 10 4 14 1 11 -6 -2 -7
-12 -12 -22 -10 -13 3 -16 -1 -11 -13 4 -11 2 -15 -6 -13 -7 3 -13 19 -14 36
-2 34 10 43 20 16z"/>
<path d="M8250 2241 c0 -17 15 -19 28 -5 11 12 9 14 -8 14 -11 0 -20 -4 -20
-9z"/>
<path d="M8237 2171 c-4 -18 -7 -48 -6 -65 1 -26 3 -24 10 14 5 25 8 54 6 65
-2 14 -5 9 -10 -14z"/>
<path d="M8588 2093 c18 -7 15 -21 -5 -26 -16 -3 -16 -5 2 -11 53 -20 65 -26
65 -36 0 -11 -49 -8 -139 6 -40 6 -44 5 -38 -10 4 -10 7 -22 7 -27 0 -5 10
-14 23 -19 16 -6 17 -9 5 -9 -9 -1 -18 -9 -20 -18 -4 -22 53 -63 85 -63 29 0
51 15 43 29 -4 6 -2 11 4 11 6 0 8 5 5 10 -3 6 2 13 12 17 37 13 63 46 63 80
0 31 -3 33 -45 44 -25 6 -48 15 -51 20 -3 5 -11 9 -17 8 -9 0 -9 -2 1 -6z
m-51 -89 c-3 -3 -12 -4 -19 -1 -8 3 -5 6 6 6 11 1 17 -2 13 -5z m68 -54 c4 -7
-3 -9 -22 -5 l-28 6 25 -15 25 -15 -28 -1 c-16 0 -38 5 -50 12 -22 12 -21 12
8 19 46 10 63 10 70 -1z"/>
<path d="M8495 2080 c-3 -5 1 -10 10 -10 9 0 13 5 10 10 -3 6 -8 10 -10 10 -2
0 -7 -4 -10 -10z"/>
<path d="M8446 2045 c-3 -8 -1 -15 4 -15 6 0 10 7 10 15 0 8 -2 15 -4 15 -2 0
-6 -7 -10 -15z"/>
<path d="M5400 2015 c-10 -12 -10 -15 4 -15 9 0 16 7 16 15 0 8 -2 15 -4 15
-2 0 -9 -7 -16 -15z"/>
<path d="M8390 2011 c0 -10 19 -25 25 -20 1 2 -3 10 -11 17 -8 7 -14 8 -14 3z"/>
<path d="M5360 1989 c0 -5 5 -7 10 -4 6 3 10 8 10 11 0 2 -4 4 -10 4 -5 0 -10
-5 -10 -11z"/>
<path d="M9777 1963 c-12 -11 -8 -23 8 -23 8 0 15 7 15 15 0 16 -12 20 -23 8z"/>
<path d="M9804 1928 c-4 -5 0 -14 7 -19 20 -13 29 -11 29 5 0 18 -27 29 -36
14z"/>
<path d="M9848 1793 c6 -2 18 -2 25 0 6 3 1 5 -13 5 -14 0 -19 -2 -12 -5z"/>
<path d="M10270 1680 c0 -5 7 -10 16 -10 8 0 12 5 9 10 -3 6 -10 10 -16 10 -5
0 -9 -4 -9 -10z"/>
<path d="M10461 1513 c16 -28 25 -37 27 -27 2 9 -8 28 -23 43 l-27 26 23 -42z"/>
<path d="M10612 1348 c26 -24 61 -54 78 -68 18 -14 42 -34 54 -46 11 -11 29
-26 39 -33 15 -12 17 -11 17 5 0 12 -34 46 -88 89 -48 38 -93 76 -100 82 -7 7
-21 13 -30 13 -10 0 1 -16 30 -42z"/>
<path d="M6821 1364 c0 -11 3 -14 6 -6 3 7 2 16 -1 19 -3 4 -6 -2 -5 -13z"/>
<path d="M2328 1321 c-2 -29 0 -41 9 -41 15 0 17 48 4 69 -6 9 -10 0 -13 -28z"/>
<path d="M4957 1113 c-6 -34 -6 -35 16 -13 15 15 15 19 3 29 -11 9 -15 6 -19
-16z"/>
<path d="M6735 793 c-3 -27 -14 -86 -24 -133 -11 -47 -29 -141 -42 -210 -12
-69 -25 -127 -29 -130 -4 -3 -10 -25 -13 -50 -7 -49 -19 -111 -41 -207 l-14
-63 48 0 47 0 17 108 c10 59 22 130 27 157 12 69 37 337 43 468 5 108 -8 148
-19 60z"/>
</g>
</svg>
